<?xml version="1.0" encoding="UTF-8"?>
<svg width="150px" height="30px" viewBox="0 0 150 30" version="1.1" xmlns="http://www.w3.org/2000/svg" xmlns:xlink="http://www.w3.org/1999/xlink">
    <!-- Generator: Sketch 41.1 (35376) - http://www.bohemiancoding.com/sketch -->
    <title>Asia Thailand - MoneyGuru.co.th English</title>
    <desc>Created with Sketch.</desc>
    <defs></defs>
    <g id="Logo-2.0" stroke="none" stroke-width="1" fill="none" fill-rule="evenodd">
        <g id="Asia-Thailand---MoneyGuru.co.th-English">
            <g id="Asia-Thailand---MoneyGuru.co.th" transform="translate(0.000000, -0.500000)">
                <g id="Slogan" transform="translate(53.000000, 15.000000)" fill="#6B6663">
                    <path d="M1.42548996,6.25113962 C1.27982454,6.25023396 1.1645829,6.16646038 1.07285056,5.99483774 C0.975586617,5.81415849 0.837296654,5.3237434 0.666739033,4.53536604 C0.494337546,3.7442717 0.344984387,2.97763019 0.225133086,2.25672453 C0.179497398,2.05023396 0.135705576,1.87996981 0.0919137546,1.74910189 C0.0347539033,1.57929057 0.00525204461,1.45159245 0.00525204461,1.37144151 C0.00525204461,1.28993208 0.0356758364,1.21793208 0.0997501859,1.1522717 C0.162441636,1.08615849 0.227437918,1.05491321 0.303036431,1.05491321 C0.388776208,1.05491321 0.46714052,1.12646038 0.537207435,1.26683774 C0.610962082,1.42034717 0.698084758,1.80072453 0.7912,2.39846038 C0.994025279,3.70713962 1.20376506,4.71196981 1.41719257,5.38125283 L1.44346766,5.46412075 L1.49048625,5.39166792 C2.07867955,4.46698868 2.45067955,3.87196981 2.59542305,3.62064906 C2.73924461,3.36842264 2.94437472,2.95498868 3.20758662,2.39483774 C3.26797323,2.28706415 3.34956431,2.23272453 3.45420372,2.23272453 C3.47494721,2.23272453 3.52242677,2.25038491 3.59848625,2.3658566 C3.66163866,2.46457358 3.77780223,2.74261132 3.94144535,3.19363019 C4.35769814,4.33521509 4.63427807,5.00087547 4.78777993,5.23181887 L4.82235242,5.2848 L4.85554201,5.23000755 C5.68712565,3.87830943 6.17759405,2.45687547 6.31311822,1.00464906 C6.31311822,0.996045283 6.31680595,0.96570566 6.39470929,0.895516981 C6.44818141,0.846158491 6.49980967,0.82125283 6.54590632,0.82125283 C6.65054572,0.82125283 6.78929665,0.853856604 6.78929665,1.13642264 C6.78929665,1.37868679 6.72614424,1.74819623 6.60076134,2.23408302 C6.47537844,2.7213283 6.32325948,3.1773283 6.14809219,3.58804528 C5.97292491,4.00057358 5.67514052,4.63770566 5.25980967,5.48178113 C5.19066468,5.61944151 5.13304387,5.74170566 5.08556431,5.84902642 C5.06804758,5.88253585 5.02702156,5.91468679 4.96940074,5.94049811 C4.90670929,5.96812075 4.85830781,5.98215849 4.82373532,5.98215849 C4.73430781,5.98215849 4.64027063,5.93144151 4.54438959,5.83091321 C4.44528178,5.72630943 4.28717026,5.40796981 4.07789145,4.88359245 C3.86538587,4.35468679 3.71004015,3.95212075 3.61692491,3.68721509 C3.54962379,3.50246038 3.48278364,3.33038491 3.41271673,3.17461132 L3.3855197,3.11212075 L3.34311078,3.16736604 C3.26336357,3.27513962 3.11308848,3.51876226 2.89689517,3.89234717 C1.769371,5.88615849 1.49048625,6.22804528 1.42548996,6.25113962" id="Fill-31"></path>
                    <path d="M62.9208238,6.42384906 C62.7534929,6.42384906 62.6179688,6.31064151 62.5064149,6.07788679 C62.3907123,5.83743396 62.3335524,5.48920755 62.3335524,5.04090566 L62.3335524,4.92181132 L62.2597978,5.01781132 C61.9325115,5.44935849 61.6066082,5.77630189 61.2871584,5.99184906 C60.9700134,6.20467925 60.6796045,6.31290566 60.4177755,6.31290566 C60.2462959,6.31290566 60.1020134,6.24316981 59.9780134,6.09962264 C59.8517086,5.9565283 59.7885561,5.76950943 59.7885561,5.54309434 C59.7885561,4.94445283 60.066058,4.28739623 60.6123033,3.59320755 C61.1603926,2.90037736 61.7047941,2.54943396 62.2385933,2.54943396 C62.4206751,2.54943396 62.5552773,2.65041509 62.6460877,2.85962264 C62.6921844,2.97283019 62.7723926,2.99592453 62.8286305,2.99592453 C63.0485115,2.99592453 63.0734037,3.09645283 63.0734037,3.17207547 C63.0734037,3.24135849 63.0600357,3.33826415 63.0369874,3.46143396 C62.9097606,4.14701887 62.8466082,4.6365283 62.8466082,4.91909434 C62.8466082,5.50324528 62.9577011,5.84603774 63.193255,5.96558491 C63.2845264,6.01449057 63.3273963,6.06973585 63.3273963,6.13630189 C63.3273963,6.19381132 63.2826825,6.25675472 63.1923331,6.32196226 C63.0978349,6.38988679 63.0065636,6.42384906 62.9208238,6.42384906 M62.0749502,3.03849057 C61.747203,3.03849057 61.3788907,3.32603774 60.9534186,3.91833962 C60.5367048,4.49750943 60.3241993,4.98701887 60.3241993,5.37283019 C60.3241993,5.73690566 60.4938349,5.81343396 60.6344297,5.81343396 C60.9096268,5.81343396 61.2742513,5.55532075 61.747203,5.02550943 C62.2137011,4.50430189 62.449716,4.01750943 62.449716,3.57690566 C62.449716,3.21962264 62.3243331,3.03849057 62.0749502,3.03849057" id="Fill-32"></path>
                    <path d="M32.468452,6.35411321 C32.3020431,6.35411321 32.1674409,6.24045283 32.0535822,6.00724528 C31.9392625,5.76769811 31.8811807,5.41901887 31.8811807,4.97071698 L31.8811807,4.85162264 L31.8092699,4.94762264 C31.4796788,5.37871698 31.1528535,5.70656604 30.8338647,5.92166038 C30.5194855,6.1349434 30.2267717,6.24316981 29.9672476,6.24316981 C29.795768,6.24316981 29.6514855,6.17343396 29.5247197,6.02943396 C29.3988758,5.88633962 29.3357234,5.69932075 29.3357234,5.47335849 C29.3357234,4.87426415 29.6132253,4.21720755 30.1613145,3.52166038 C30.7075599,2.83018868 31.25611,2.47924528 31.7866825,2.47924528 C31.9719911,2.47924528 32.1029056,2.58022642 32.194177,2.78943396 C32.2388907,2.90218868 32.318177,2.92618868 32.3757978,2.92618868 C32.5952178,2.92618868 32.620571,3.02671698 32.620571,3.10188679 C32.620571,3.17162264 32.6099688,3.26898113 32.5859985,3.39169811 C32.4573888,4.07637736 32.3923926,4.56633962 32.3923926,4.84890566 C32.3923926,5.4330566 32.5062513,5.77584906 32.7399613,5.8949434 C32.8303108,5.94384906 32.8764074,5.99909434 32.8764074,6.06656604 C32.8764074,6.1245283 32.8289279,6.18701887 32.7390394,6.25222642 C32.6440803,6.31969811 32.5537309,6.35411321 32.468452,6.35411321 M31.6248833,2.96830189 C31.2943703,2.96830189 30.9274409,3.25630189 30.5010468,3.84815094 C30.0847941,4.42777358 29.8727494,4.91683019 29.8727494,5.30218868 C29.8727494,5.66626415 30.0414632,5.74324528 30.1839019,5.74324528 C30.458177,5.74324528 30.8223405,5.48558491 31.2962141,4.95577358 C31.7608684,4.43456604 31.9978052,3.94641509 31.9978052,3.50626415 C31.9978052,3.14988679 31.8733442,2.96830189 31.6248833,2.96830189" id="Fill-33"></path>
                    <path d="M12.4842156,6.3045283 C12.1431004,6.3045283 11.8780446,6.20762264 11.6955019,6.01698113 C11.5134201,5.82588679 11.4207658,5.55237736 11.4207658,5.20324528 C11.4207658,4.60822642 11.666,3.97018868 12.148632,3.30724528 C12.6261933,2.64883019 13.0756357,2.31464151 13.4812862,2.31464151 C13.6606022,2.31464151 13.8113383,2.40883019 13.9436357,2.60218868 C14.077316,2.79826415 14.1436952,3.00792453 14.1436952,3.22618868 C14.1436952,3.35615094 14.1169591,3.468 14.0584164,3.56037736 C14.0256877,3.61924528 13.9685279,3.68898113 13.9109071,3.68898113 C13.7970483,3.68898113 13.7126914,3.56309434 13.6606022,3.31313208 C13.5919182,2.99660377 13.4858959,2.84218868 13.3434572,2.84218868 C13.0788625,2.84218868 12.781539,3.13109434 12.4358141,3.72249057 C12.0970037,4.30120755 11.9255242,4.79660377 11.9255242,5.19690566 C11.9255242,5.61622642 12.1712193,5.82996226 12.6524684,5.82996226 C13.0051078,5.82996226 13.4268922,5.66513208 13.9021487,5.34045283 C14.1003643,5.20550943 14.1985502,5.17743396 14.2446468,5.17743396 C14.2925874,5.17743396 14.325316,5.19283019 14.325316,5.27343396 C14.325316,5.43554717 14.1174201,5.64883019 13.7085428,5.90739623 C13.2936729,6.1709434 12.8806468,6.3045283 12.4842156,6.3045283" id="Fill-34"></path>
                    <path d="M68.9346855,6.30384906 C68.5672952,6.30384906 68.280113,6.19698113 68.0818974,5.98550943 C67.8836818,5.77313208 67.7827301,5.47109434 67.7827301,5.08890566 C67.7827301,4.43501887 68.0090647,3.80513208 68.458968,3.21554717 C68.9061056,2.62913208 69.3998007,2.33207547 69.9253026,2.33207547 C70.0935554,2.33207547 70.2244699,2.38369811 70.3309532,2.49101887 C70.4383584,2.59788679 70.4881428,2.72332075 70.4881428,2.87411321 C70.4881428,3.21871698 70.3115926,3.55516981 69.9644848,3.87396226 C69.6118454,4.19818868 69.1324401,4.5210566 68.5382543,4.83396226 C68.4027301,4.90279245 68.3326632,4.99698113 68.3326632,5.11245283 C68.3326632,5.31532075 68.3944327,5.48060377 68.514284,5.60377358 C68.6355182,5.72784906 68.8162171,5.79079245 69.0480833,5.79079245 C69.5662097,5.79079245 70.1004699,5.50686792 70.636113,4.94807547 C70.733377,4.8525283 70.7725591,4.84573585 70.7840833,4.84573585 C70.8039048,4.84573585 70.857377,4.84573585 70.857377,4.98339623 C70.857377,5.20754717 70.6467152,5.48558491 70.2318454,5.81026415 C69.8128268,6.13811321 69.3772134,6.30384906 68.9346855,6.30384906 M69.7436818,2.77856604 C69.5113546,2.77856604 69.2601279,2.93750943 68.9761725,3.26309434 C68.7005145,3.5805283 68.5050647,3.97267925 68.390284,4.4309434 L68.3690796,4.52241509 L68.4520535,4.47486792 C69.4767822,3.87486792 69.9760089,3.40211321 69.9760089,3.02807547 C69.9760089,2.86732075 69.8930349,2.77856604 69.7436818,2.77856604" id="Fill-35"></path>
                    <path d="M38.1212387,6.30384906 C37.7529264,6.30384906 37.4680491,6.19698113 37.2702944,5.98550943 C37.0711569,5.77313208 36.9702052,5.472 36.9702052,5.088 C36.9702052,4.43592453 37.1970007,3.80513208 37.6473651,3.21509434 C38.0931197,2.62867925 38.5877368,2.33162264 39.1113948,2.33162264 C39.2796476,2.33162264 39.4137888,2.38369811 39.5184283,2.49011321 C39.6249115,2.59788679 39.6746959,2.72286792 39.6746959,2.87456604 C39.6746959,3.21871698 39.4995286,3.55516981 39.1514989,3.87441509 C38.7988595,4.19773585 38.3208372,4.5210566 37.7266513,4.83396226 C37.5892833,4.90369811 37.5215212,4.99698113 37.5215212,5.11335849 C37.5215212,5.31622642 37.5828297,5.48060377 37.703603,5.60377358 C37.8225323,5.72784906 38.0023093,5.79079245 38.2350974,5.79079245 C38.7527628,5.79079245 39.2865621,5.50686792 39.8226662,4.94807547 C39.9194691,4.8525283 39.9609561,4.84573585 39.9697145,4.84573585 C39.990919,4.84573585 40.045313,4.84573585 40.045313,4.98384906 C40.045313,5.20754717 39.8341903,5.48558491 39.4174766,5.81071698 C39.0021457,6.13811321 38.5646885,6.30384906 38.1212387,6.30384906 M38.9316178,2.77901887 C38.6992907,2.77901887 38.4485249,2.93750943 38.1631866,3.264 C37.8870677,3.58098113 37.6902349,3.97267925 37.5777591,4.4309434 L37.5547108,4.52196226 L37.6381457,4.47486792 C38.6651792,3.87486792 39.1621011,3.40211321 39.1621011,3.02807547 C39.1621011,2.86732075 39.081432,2.77901887 38.9316178,2.77901887" id="Fill-36"></path>
                    <path d="M7.69126989,6.3045283 C7.32387955,6.3045283 7.0366974,6.19720755 6.83848178,5.98528302 C6.64026617,5.77335849 6.5379316,5.47177358 6.5379316,5.08867925 C6.5379316,4.43569811 6.76564907,3.80535849 7.21555242,3.21486792 C7.66268996,2.62981132 8.15454126,2.33139623 8.68096506,2.33139623 C8.84829591,2.33139623 8.98105428,2.3834717 9.08615465,2.49033962 C9.19355985,2.59720755 9.2438052,2.72354717 9.2438052,2.87479245 C9.2438052,3.2189434 9.06863792,3.55539623 8.72153011,3.87418868 C8.36750781,4.19841509 7.8881026,4.52037736 7.29622156,4.83373585 C7.1593145,4.9034717 7.09016952,4.99720755 7.09016952,5.11267925 C7.09016952,5.31554717 7.1510171,5.48128302 7.27179033,5.60490566 C7.3921026,5.72762264 7.57095762,5.79101887 7.80374572,5.79101887 C8.32279405,5.79101887 8.85659331,5.50709434 9.3926974,4.94830189 C9.48811747,4.85275472 9.52960446,4.84596226 9.53974572,4.84596226 C9.56095019,4.84596226 9.61303941,4.84596226 9.61303941,4.98407547 C9.61303941,5.20732075 9.40329963,5.48581132 8.98842974,5.8109434 C8.56941115,6.13788679 8.13379777,6.3045283 7.69126989,6.3045283 M8.50026617,2.77924528 C8.26793903,2.77924528 8.01717323,2.93818868 7.73275688,3.26422642 C7.45709888,3.58030189 7.25888327,3.97290566 7.14732937,4.43071698 L7.12566394,4.52218868 L7.20725502,4.47328302 C8.23336654,3.87418868 8.73167138,3.40233962 8.73167138,3.02875472 C8.73167138,2.86709434 8.6500803,2.77924528 8.50026617,2.77924528" id="Fill-37"></path>
                    <path d="M18.6375197,6.20155472 C18.564687,6.20155472 18.440687,6.08834717 18.440687,5.33121509 C18.440687,4.99340377 18.5172074,4.37166792 18.6651777,3.48321509 C18.7264862,3.11959245 18.75691,2.85559245 18.75691,2.69891321 C18.75691,2.56713962 18.8089993,2.50781887 18.9251628,2.50781887 C19.1644045,2.50781887 19.2791851,2.67808302 19.2791851,3.02676226 C19.2791851,3.19747925 19.2363152,3.5402717 19.1478097,4.04517736 C19.0440922,4.63430943 18.9947688,4.98208302 18.9933859,5.11159245 L18.9901591,5.20668679 L19.060687,5.14012075 C19.2128059,4.99702642 19.4257725,4.69453585 19.7115717,4.21453585 C20.1116907,3.57559245 20.4094751,3.16396981 20.5947836,2.99506415 C20.7764045,2.8293283 20.9654007,2.74510189 21.1585457,2.74510189 C21.2968357,2.74510189 21.4042409,2.83657358 21.4885978,3.02540377 C21.5780253,3.22193208 21.6314974,3.7037434 21.6522409,4.45770566 C21.6545457,4.65287547 21.6739063,4.79596981 21.705713,4.89423396 C21.7495048,5.02329057 21.7720922,5.0613283 21.8117353,5.0613283 C21.9016238,5.0613283 22.0689546,4.93181887 22.5700253,3.92291321 C22.766858,3.53529057 22.9613859,3.23642264 23.1466944,3.03536604 C23.3255494,2.84064906 23.525148,2.74147925 23.7422632,2.74147925 C23.9174305,2.74147925 24.0432743,2.8293283 24.1239435,3.00910189 C24.2101442,3.19883774 24.2714528,3.48502642 24.3106349,3.86042264 C24.3447465,4.24623396 24.4009844,4.60487547 24.475661,4.92547925 C24.5517204,5.2578566 24.6987688,5.4738566 24.9071257,5.5698566 C25.026055,5.62510189 25.0873636,5.68668679 25.0873636,5.75325283 C25.0873636,5.82117736 25.0361963,5.89498868 24.9324788,5.97287547 C24.8264565,6.05347925 24.7305755,6.0933283 24.6434528,6.0933283 C24.4696684,6.0933283 24.3120178,5.98419623 24.171423,5.77000755 C24.0248357,5.54857358 23.9155866,5.05725283 23.8395271,4.30963019 C23.8063375,4.00442264 23.7749918,3.78434717 23.7436461,3.6557434 C23.7076907,3.50766792 23.6445383,3.43340377 23.5583375,3.43340377 C23.4444788,3.43340377 23.3167911,3.53030943 23.1720476,3.72864906 C23.0356015,3.91476226 22.8124937,4.29876226 22.5091777,4.86661132 C22.2773115,5.30630943 22.0975346,5.60291321 21.9781442,5.74736604 C21.8638245,5.88366792 21.7568803,5.95476226 21.6545457,5.95476226 C21.5651182,5.95476226 21.4835271,5.91853585 21.4106944,5.84563019 C21.3369398,5.77181887 21.2885383,5.68170566 21.2687167,5.57664906 C21.2493561,5.46615849 21.2249249,5.18857358 21.2018766,4.75023396 C21.1663822,4.00125283 21.099081,3.57378113 20.9976684,3.44472453 L20.9861442,3.42978113 L20.9654007,3.42978113 C20.8146647,3.43340377 20.4989026,3.63763019 19.5188877,5.37151698 C19.2045086,5.92849811 19.1201517,6.04442264 19.0984862,6.0648 C19.0657576,6.09876226 18.9966126,6.13000755 18.895661,6.15898868 C18.7910216,6.18706415 18.7038989,6.20155472 18.6375197,6.20155472" id="Fill-38"></path>
                    <path d="M48.9402156,6.27441509 C48.6299851,6.27441509 48.37,6.15758491 48.1685576,5.92664151 C47.9638885,5.69207547 47.8615539,5.39909434 47.8615539,5.05539623 C47.8615539,4.46671698 48.066223,3.87803774 48.4718736,3.30475472 C48.8710706,2.73645283 49.3564684,2.44890566 49.9123941,2.44890566 C50.2770186,2.44890566 50.5761859,2.58792453 50.8011375,2.86279245 C51.029777,3.1394717 51.1454796,3.47501887 51.1454796,3.8594717 C51.1454796,4.45086792 50.9034721,5.0069434 50.4277546,5.51320755 C49.9515762,6.01811321 49.4495836,6.27441509 48.9402156,6.27441509 M49.8381784,2.9234717 C49.4431301,2.9234717 49.100632,3.16166038 48.8217472,3.63215094 C48.5451673,4.0949434 48.4064164,4.54369811 48.4064164,4.96437736 C48.4064164,5.20618868 48.4589665,5.40769811 48.5636059,5.56166038 C48.6710112,5.72196226 48.8180595,5.80301887 48.9959926,5.80301887 C49.3587732,5.80301887 49.7270855,5.60603774 50.0875613,5.22022642 C50.4480372,4.83396226 50.629197,4.39879245 50.629197,3.92603774 C50.629197,3.63260377 50.5586691,3.39079245 50.4180743,3.20603774 C50.2756357,3.01901887 50.0806468,2.9234717 49.8381784,2.9234717" id="Fill-39"></path>
                    <path d="M15.7302959,6.27441509 C15.4191435,6.27441509 15.1600803,6.15758491 14.958177,5.92664151 C14.7562736,5.69298113 14.653939,5.39954717 14.653939,5.05630189 C14.653939,4.46716981 14.8572253,3.87803774 15.261032,3.30566038 C15.6611509,2.73645283 16.1465487,2.44890566 16.7020134,2.44890566 C17.066177,2.44890566 17.3667271,2.58837736 17.5930617,2.86279245 C17.8198572,3.14037736 17.9355599,3.4754717 17.9355599,3.8594717 C17.9355599,4.45086792 17.6940134,5.0069434 17.2182959,5.51320755 C16.7416565,6.01811321 16.2405859,6.27441509 15.7302959,6.27441509 M16.6277978,2.9234717 C16.2327494,2.9234717 15.8925561,3.16211321 15.6113665,3.63260377 C15.3357086,4.09539623 15.1964967,4.54369811 15.1964967,4.96528302 C15.1964967,5.20664151 15.2481249,5.40769811 15.3532253,5.56211321 C15.4615524,5.72196226 15.6081398,5.8034717 15.7879167,5.8034717 C16.1506974,5.8034717 16.5167048,5.60739623 16.8771807,5.22067925 C17.2376565,4.83441509 17.4211212,4.39924528 17.4211212,3.92603774 C17.4211212,3.63260377 17.3501323,3.39079245 17.2095375,3.20603774 C17.0647941,3.01901887 16.8693442,2.9234717 16.6277978,2.9234717" id="Fill-40"></path>
                    <path d="M25.3519584,8.66055849 C25.287884,8.66055849 25.2136684,8.6261434 25.1256238,8.55957736 C25.0145309,8.47082264 25.0030067,8.4282566 25.0030067,8.41376604 C25.0030067,8.2901434 25.0297428,8.11535094 25.0896684,7.89301132 C25.5215941,6.18086038 25.7410141,4.65482264 25.7410141,3.35836981 L25.7340996,3.06493585 C25.7322558,2.82448302 25.7737428,2.64878491 25.8608654,2.54236981 C25.9502929,2.43776604 26.045713,2.38659623 26.1572669,2.38659623 C26.2084342,2.38659623 26.2559138,2.44682264 26.2854156,2.49799245 C26.3338171,2.5781434 26.3582483,2.69633208 26.3582483,2.84938868 C26.3582483,3.0717283 26.3338171,3.34569057 26.2877204,3.66312453 C26.2264119,4.07293585 26.1932223,4.30206792 26.1918394,4.36410566 L26.2674379,4.38629434 C26.6163896,3.78765283 26.9911554,3.31489811 27.3802112,2.9802566 C27.7669621,2.64878491 28.1274379,2.48033208 28.4533413,2.48033208 C28.6796758,2.48033208 28.8742037,2.56455849 29.0300104,2.73165283 C29.1853561,2.89874717 29.2655643,3.10931321 29.2655643,3.35836981 C29.2655643,4.10146415 28.9714677,4.78750189 28.388345,5.3952 C27.809371,6.00199245 27.2350067,6.31082264 26.6906052,6.31082264 C26.5615346,6.31082264 26.4592,6.27821887 26.3854454,6.21527547 C26.307081,6.15006792 26.2264119,6.02553962 26.1415941,5.84848302 L26.0945755,5.7506717 L26.0655346,5.85482264 C25.9502929,6.27323774 25.8378171,6.86735094 25.7368654,7.62086038 L25.6377576,8.27927547 C25.6234677,8.36440755 25.5819807,8.4522566 25.5142186,8.53874717 C25.4515271,8.61844528 25.3966721,8.66055849 25.3519584,8.66055849 M28.3085978,3.01784151 C27.9573413,3.01784151 27.5433933,3.32440755 27.038174,3.95429434 C26.5343375,4.58101132 26.2909472,5.05738868 26.2909472,5.41195472 C26.2909472,5.50750189 26.3453413,5.59987925 26.4513636,5.68636981 C26.5564639,5.77059623 26.6892223,5.81452075 26.8464119,5.81452075 C27.1949026,5.81452075 27.5982483,5.56184151 28.0444639,5.06327547 C28.4892967,4.56652075 28.7156312,4.06976604 28.7156312,3.58795472 C28.7156312,3.41089811 28.6782929,3.27006792 28.6022335,3.1722566 C28.5238691,3.06991698 28.4247613,3.01784151 28.3085978,3.01784151" id="Fill-41"></path>
                    <path d="M33.9265814,6.27183396 C33.8288565,6.27183396 33.7583286,6.19756981 33.712232,6.0458717 C33.6619866,5.88058868 33.6361725,5.59621132 33.6361725,5.19953208 C33.6361725,5.08994717 33.6421651,4.8504 33.6536892,4.47862642 C33.6684401,4.0434566 33.6965591,3.68662642 33.7385071,3.41990943 C33.7468045,3.37553208 33.7574067,3.27138113 33.7758454,3.10836226 C33.7896743,2.93221132 33.8113398,2.80994717 33.8343881,2.74383396 C33.8551316,2.6813434 33.9021502,2.62247547 33.974061,2.56677736 C34.0441279,2.51107925 34.1178825,2.48481509 34.1990126,2.48481509 C34.2741502,2.48481509 34.3285442,2.50655094 34.3644996,2.55138113 C34.4022989,2.5989283 34.4202766,2.64873962 34.4202766,2.70262642 C34.4202766,2.78911698 34.3990721,2.91500377 34.3515926,3.07575849 C34.2967375,3.26277736 34.2653918,3.38821132 34.2552506,3.46111698 C34.2483361,3.54036226 34.235429,3.6218717 34.2156074,3.70519245 C34.1911762,3.80798491 34.1681279,4.06790943 34.1446186,4.49990943 L34.1400089,4.62896604 L34.1400089,4.87847547 L34.2156074,4.74489057 C34.2400387,4.70141887 34.2690796,4.64300377 34.303652,4.56647547 C34.4622245,4.20738113 34.6106558,3.9234566 34.7434141,3.71968302 C34.8766335,3.51636226 35.0259866,3.31938113 35.186403,3.13326792 C35.3458974,2.94760755 35.4929457,2.80541887 35.6229383,2.71032453 C35.7533918,2.61477736 35.8723212,2.54821132 35.9774216,2.51153208 C36.082061,2.47530566 36.1825517,2.45628679 36.2802766,2.45628679 C36.4734216,2.45628679 36.632916,2.51424906 36.7546112,2.62836226 C36.8772283,2.74383396 36.9385368,2.8733434 36.9385368,3.02730566 C36.9385368,3.09024906 36.9182543,3.14730566 36.8772283,3.19756981 C36.839429,3.24647547 36.7795033,3.27047547 36.6988342,3.27047547 C36.6098677,3.27047547 36.5282766,3.23153208 36.4526781,3.15364528 C36.3609457,3.0594566 36.2622989,3.0114566 36.1581204,3.0114566 C35.8953695,3.0114566 35.5514885,3.30398491 35.1048119,3.90715472 C34.6655108,4.4949283 34.3944625,5.15198491 34.3022691,5.85975849 C34.2782989,6.03047547 34.2386558,6.14368302 34.1791911,6.19530566 C34.1215703,6.24556981 34.0358305,6.27183396 33.9265814,6.27183396" id="Fill-42"></path>
                    <path d="M57.1371227,6.48910189 C56.7789517,6.48910189 56.6037844,6.37725283 56.6037844,6.1458566 C56.6037844,6.07204528 56.636974,6.02178113 56.7102677,5.98691321 C56.7918587,5.94796981 56.8725279,5.92759245 56.954119,5.92759245 C56.9748625,5.92759245 57.0278736,5.93347925 57.145881,5.96155472 C57.2468327,5.98555472 57.31229,5.9973283 57.3468625,5.9973283 C57.6119182,5.9973283 57.9004833,5.95295094 58.2033383,5.86691321 C58.5172565,5.77725283 58.7085576,5.66540377 58.7846171,5.52638491 C58.7901487,5.33891321 58.5965428,5.15868679 58.2001115,4.95717736 C57.7239331,4.71717736 57.3994126,4.52381887 57.2330037,4.38163019 C57.0748922,4.24487547 56.9933011,4.09046038 56.9933011,3.92472453 C56.9933011,3.47823396 57.2247063,3.10193208 57.683829,2.80668679 C58.1457175,2.50872453 58.5273978,2.35747925 58.8168848,2.35747925 C58.9985056,2.35747925 59.130342,2.38691321 59.2096283,2.44623396 C59.2838439,2.50283774 59.323948,2.60653585 59.323948,2.7528 C59.323948,2.81302642 59.29629,2.86329057 59.2437398,2.90721509 C59.1686022,2.96834717 59.1335688,2.97513962 59.1211227,2.97513962 C59.1142082,2.97513962 59.0828625,2.97151698 58.9855985,2.92623396 C58.8777323,2.87959245 58.841316,2.87325283 58.8201115,2.87325283 C58.6942677,2.87325283 58.4527212,2.95883774 58.0825651,3.1322717 C57.7054944,3.30842264 57.5160372,3.51400755 57.5160372,3.74359245 C57.5160372,3.88487547 57.5847212,4.01438491 57.7211673,4.12804528 C57.8516208,4.23491321 58.0857918,4.36713962 58.4204535,4.52246038 C58.6813606,4.64563019 58.8938662,4.77876226 59.0510558,4.91823396 C59.2017918,5.05408302 59.2764684,5.21076226 59.2764684,5.3928 C59.2764684,5.72925283 59.0330781,5.99823396 58.5536729,6.19068679 C58.0599777,6.38993208 57.5847212,6.48910189 57.1371227,6.48910189" id="Fill-43"></path>
                    <path d="M54.5456149,6.25046038 C54.3985665,6.25046038 54.2773323,6.13634717 54.1809903,5.91264906 C54.0832654,5.67672453 54.0316372,5.32125283 54.0316372,4.85664906 L54.0316372,4.74208302 C54.0316372,4.7058566 54.034403,4.6682717 54.0353249,4.6293283 L53.9601874,4.60668679 C53.6610201,5.10072453 53.3526335,5.48834717 53.0382543,5.75823396 C52.7317115,6.02449811 52.4431465,6.15944151 52.1817784,6.15944151 C52.0398007,6.15944151 51.8876818,6.07340377 51.7341799,5.90495094 C51.5802171,5.73378113 51.5013918,5.46434717 51.5013918,5.10525283 C51.5013918,4.80502642 51.5769903,4.35491321 51.7254216,3.76759245 C51.8508045,3.27264906 51.9130349,2.91808302 51.9130349,2.71657358 C51.9706558,2.60698868 52.0656149,2.54676226 52.1969903,2.54676226 C52.284113,2.54676226 52.3509532,2.5757434 52.4030424,2.63461132 C52.4560535,2.69710189 52.4823286,2.75778113 52.4823286,2.82434717 C52.4823286,2.98057358 52.4247078,3.21015849 52.312232,3.50404528 C52.0895851,4.08910189 51.9780312,4.59944151 51.9780312,5.02102642 C51.9780312,5.42676226 52.0826706,5.6328 52.2878007,5.6328 C52.532113,5.6328 52.8298974,5.44034717 53.1949829,5.04502642 C53.552232,4.6578566 53.8615405,4.11400755 54.1146112,3.42661132 C54.212797,3.15717736 54.2948491,2.98012075 54.3538528,2.90223396 C54.4087078,2.8293283 54.4815405,2.79446038 54.5737338,2.79446038 C54.6599346,2.79446038 54.7756372,2.82253585 54.7756372,3.06796981 C54.7756372,3.07793208 54.7682617,3.12095094 54.7106409,3.31113962 C54.5668193,3.82147925 54.4944476,4.31144151 54.4944476,4.76608302 C54.4944476,5.32759245 54.5875628,5.68306415 54.7807078,5.85242264 C54.8931836,5.95430943 54.9111613,6.00864906 54.9111613,6.03219623 C54.9111613,6.08155472 54.8701353,6.13000755 54.7857784,6.17529057 C54.6977338,6.22464906 54.6161428,6.25046038 54.5456149,6.25046038" id="Fill-44"></path>
                    <path d="M65.0865368,6.34342642 C65.0035628,6.34342642 64.9016892,6.27550189 64.7887524,6.14010566 C64.7859866,5.98976604 64.6878007,5.64697358 64.4854364,5.09361509 C64.0982245,4.05527547 63.9032357,3.32304906 63.9032357,2.91731321 C63.9032357,2.46538868 64.1240387,2.46538868 64.1954885,2.46538868 C64.3886335,2.46538868 64.4817487,2.59716226 64.4817487,2.86569057 C64.4817487,3.10523774 64.4895851,3.2922566 64.504797,3.4226717 C64.519087,3.55263396 64.5776297,3.79353962 64.6748937,4.13678491 C64.7726186,4.47957736 64.8786409,4.80108679 64.9961874,5.09361509 C65.056574,5.24621887 65.0966781,5.36259623 65.1229532,5.44274717 L65.1473844,5.52380377 L65.194403,5.45316226 C65.2451093,5.37844528 65.3096446,5.27610566 65.387087,5.14387925 C65.8033398,4.46101132 66.1347747,3.9266717 66.3827747,3.55670943 C66.626626,3.18855849 66.8303732,2.91595472 66.9838751,2.74886038 C67.1359941,2.58448302 67.247087,2.48486038 67.315771,2.45316226 C67.3826112,2.42236981 67.453139,2.40606792 67.521823,2.40606792 C67.6024922,2.40606792 67.6638007,2.43369057 67.7085145,2.48893585 C67.7559941,2.5482566 67.7790424,2.61210566 67.7790424,2.6877283 C67.7790424,2.78282264 67.6868491,2.89104906 67.5066112,3.0101434 C67.3176149,3.1346717 67.0502543,3.4362566 66.6897784,3.93074717 C66.3357561,4.41482264 65.9480833,5.04244528 65.5364401,5.79323774 C65.2718454,6.27233208 65.1400089,6.34342642 65.0865368,6.34342642" id="Fill-45"></path>
                    <path d="M45.4928773,8.2410566 C45.0397472,8.2410566 44.6304089,8.12241509 44.2777695,7.89056604 C43.9320446,7.66098113 43.7554944,7.46807547 43.7554944,7.31818868 C43.7554944,7.24754717 43.7720892,7.17735849 43.8052788,7.10807547 C43.8513755,7.01977358 43.8960892,7.01977358 43.9113011,7.01977358 C43.9214424,7.01977358 43.940803,7.03290566 43.9703048,7.06913208 C44.2833011,7.54415094 44.7885204,7.78641509 45.4647584,7.78641509 C45.8233903,7.78641509 46.1294721,7.47939623 46.365948,6.87396226 C46.599197,6.28075472 46.7296506,5.71698113 46.7540818,5.19667925 C46.7586914,5.09796226 46.7688327,4.99833962 46.7826617,4.89962264 L46.7974126,4.79501887 L46.7158216,4.86475472 C46.282974,5.23245283 45.9017546,5.50460377 45.5744684,5.67033962 C45.2517918,5.83516981 45.0042528,5.91758491 44.835539,5.91758491 C44.615658,5.91758491 44.44971,5.82973585 44.3330855,5.64950943 C44.2132342,5.46520755 44.1519257,5.24558491 44.1519257,4.99969811 C44.1519257,4.6469434 44.2261413,4.20316981 44.3722677,3.68196226 C44.518855,3.1634717 44.6285651,2.8514717 44.69771,2.75728302 C44.7617844,2.66943396 44.8645799,2.62596226 45.0107063,2.62596226 C45.0618736,2.62596226 45.1028996,2.65675472 45.138855,2.72015094 C45.1784981,2.79033962 45.1964758,2.87230189 45.1964758,2.96241509 C45.1964758,3.01267925 45.1702007,3.08332075 45.1208773,3.16981132 C44.9254275,3.50264151 44.9212788,3.52890566 44.9162082,3.54158491 C44.9111375,3.55788679 44.8867063,3.64211321 44.7793011,3.95954717 C44.6940223,4.2194717 44.6502305,4.46716981 44.6502305,4.69584906 C44.6502305,4.77871698 44.6695911,4.90233962 44.7092342,5.07441509 C44.753948,5.26143396 44.8484461,5.3565283 44.9927286,5.3565283 C45.1287138,5.3565283 45.2946617,5.31622642 45.4891896,5.2365283 C45.6823346,5.15728302 45.9017546,5.02732075 46.1405353,4.84935849 C46.3866914,4.66913208 46.5461859,4.52603774 46.6333086,4.41237736 C46.7190483,4.30007547 46.7803569,4.16966038 46.8135465,4.02520755 C46.8504238,3.88120755 46.874855,3.58279245 46.8900669,3.1109434 C46.902513,2.6730566 47.0053086,2.45116981 47.1943048,2.45116981 C47.3044758,2.45116981 47.3773086,2.47788679 47.4063494,2.53041509 C47.4317026,2.57207547 47.4579777,2.66762264 47.4579777,2.88950943 C47.4579777,3.04120755 47.4473755,3.23366038 47.42571,3.46098113 C47.4003569,3.75260377 47.384223,3.95954717 47.3773086,4.08271698 C47.3427361,4.71713208 47.2569963,5.36377358 47.1246989,6.0045283 C46.9900967,6.64166038 46.7904981,7.18188679 46.5332788,7.60935849 C46.282513,8.02867925 45.9321784,8.2410566 45.4928773,8.2410566" id="Fill-46"></path>
                    <path d="M40.1859539,6.99088302 C40.1675152,6.99088302 40.1218796,6.99088302 40.1218796,6.86726038 C40.1218796,6.83827925 40.1260283,6.82243019 40.129716,6.81427925 C40.570861,6.70650566 40.859887,6.54801509 40.9875747,6.34605283 C41.1194112,6.14137358 41.1821026,5.99601509 41.1821026,5.90499623 C41.1821026,5.65775094 41.148452,5.48567547 41.0783851,5.38016604 C41.0516491,5.34303396 41.038742,5.30726038 41.038742,5.27329811 C41.038742,5.25382642 41.0456565,5.21443019 41.08069,5.1410717 C41.1101918,5.08129811 41.1332401,5.06499623 41.1424595,5.06499623 C41.1880952,5.06499623 41.2613888,5.08310943 41.3623405,5.11752453 C41.5029353,5.16461887 41.5282885,5.19178868 41.5319762,5.19676981 C41.5411955,5.20944906 41.5656268,5.25880755 41.6209428,5.44537358 C41.6624297,5.58756226 41.6840952,5.71027925 41.6840952,5.81035472 C41.6840952,5.82620377 41.6702662,5.89141132 41.5541026,6.1626566 C41.4697457,6.36099623 41.3494335,6.51722264 41.203768,6.62816604 C41.0557978,6.73910943 40.9165859,6.80703396 40.7875152,6.83193962 C40.7317383,6.84099623 40.68011,6.85458113 40.6294037,6.87178868 C40.4454781,6.95148679 40.2970468,6.99088302 40.1859539,6.99088302" id="Fill-47"></path>
                </g>
                <g id="Green" transform="translate(54.394052, 0.113389)" fill="#73A647">
                    <path d="M6.77984981,13.5050264 C5.77033309,13.5050264 4.8414855,13.3374792 4.01773829,13.0055547 C3.19583494,12.6736302 2.48318067,12.2090264 1.90051896,11.6248755 C1.31693532,11.0398189 0.860117472,10.3424604 0.541128625,9.55272453 C0.221217844,8.76298868 0.0594185874,7.88993208 0.0594185874,6.95936604 C0.0594185874,6.04012075 0.225827509,5.18970566 0.553113755,4.39363019 C0.8817829,3.59710189 1.34828104,2.89023396 1.94200595,2.2938566 C2.53388699,1.69702642 3.2488461,1.21657358 4.06706171,0.865630189 C4.88251152,0.516498113 5.78969368,0.339441509 6.76048922,0.339441509 C7.3284,0.339441509 7.84975316,0.378384906 8.3134855,0.457630189 C8.77537398,0.536422642 9.20822156,0.649630189 9.60188699,0.794083019 C9.99463048,0.938535849 10.3703182,1.11921509 10.7206528,1.33023396 C11.0428684,1.52495094 11.3623182,1.75091321 11.6716268,2.00359245 L10.3389725,3.56404528 C10.1107941,3.37883774 9.87616208,3.2058566 9.63922528,3.05098868 C9.37048178,2.87529057 9.08606543,2.7258566 8.79427361,2.60766792 C8.50063792,2.48812075 8.17519554,2.39347925 7.82486097,2.3237434 C7.47452639,2.25581887 7.0845487,2.22095094 6.66737398,2.22095094 C6.05290558,2.22095094 5.4711658,2.34910189 4.93828848,2.6013283 C4.40909888,2.85264906 3.94352268,3.19363019 3.55354498,3.61476226 C3.16448922,4.03634717 2.85287584,4.53536604 2.62976803,5.09913962 C2.40804312,5.66336604 2.29556729,6.26789434 2.29556729,6.89461132 C2.29556729,7.60872453 2.40435539,8.24268679 2.6205487,8.81778113 C2.83628104,9.39695094 3.15112119,9.90049811 3.55216208,10.3152906 C3.95366394,10.7296302 4.43860074,11.0611019 4.99176059,11.3011019 C5.54538141,11.5397434 6.17506171,11.6601962 6.86282379,11.6601962 C7.49619182,11.6601962 8.09729219,11.5682717 8.64953011,11.386234 C9.20268996,11.2037434 9.68947063,10.9583094 10.0951212,10.655366 L10.1370691,10.6254792 L10.1370691,8.03891321 L6.77201338,8.03891321 L6.77201338,6.26789434 L12.1653219,6.26789434 L12.1653219,11.5469887 C11.8523257,11.8032906 11.5061398,12.0514415 11.1332178,12.2841962 C10.7464669,12.5255547 10.3209948,12.7401962 9.87063048,12.922234 C9.41796134,13.1051774 8.92703197,13.2487245 8.41351524,13.3506113 C7.89723271,13.4529509 7.34729963,13.5050264 6.77984981,13.5050264" id="Fill-13"></path>
                    <path d="M16.376574,13.2732679 C15.3103584,13.2732679 14.4769309,12.9499472 13.9002617,12.3119094 C13.3212877,11.6716075 13.027652,10.7940226 13.027652,9.70224906 L13.027652,3.72579623 L15.067429,3.72579623 L15.067429,9.03794717 C15.067429,9.80594717 15.2587301,10.4077585 15.631652,10.8275321 C16.0096446,11.2527396 16.5480535,11.4664755 17.2330498,11.4664755 C17.905139,11.4664755 18.457377,11.2468528 18.8773175,10.8130415 C19.2949532,10.3801358 19.5088416,9.77107925 19.5088416,9.00307925 L19.5088416,3.72579623 L21.5486186,3.72579623 L21.5486186,13.0740226 L19.5088416,13.0740226 L19.5088416,11.3487396 L19.3193844,11.6195321 C19.0100758,12.0705509 18.6177933,12.4640604 18.1522171,12.7900981 C17.6953993,13.1111547 17.0975257,13.2732679 16.376574,13.2732679" id="Fill-16"></path>
                    <path d="M32.1477145,13.2732679 C31.0814989,13.2732679 30.2480714,12.9499472 29.6714022,12.3119094 C29.0924283,11.6716075 28.7987926,10.7940226 28.7987926,9.70224906 L28.7987926,3.72579623 L30.8385695,3.72579623 L30.8385695,9.03794717 C30.8385695,9.80594717 31.0298706,10.4077585 31.4032535,10.8275321 C31.7807851,11.2527396 32.3191941,11.4664755 33.0041903,11.4664755 C33.6762796,11.4664755 34.2285175,11.2468528 34.648458,10.8130415 C35.0656327,10.3801358 35.2799822,9.77107925 35.2799822,9.00307925 L35.2799822,3.72579623 L37.3197591,3.72579623 L37.3197591,13.0740226 L35.2799822,13.0740226 L35.2799822,11.3487396 L35.0905249,11.6195321 C34.7812164,12.0705509 34.3889338,12.4640604 33.9233576,12.7900981 C33.4665398,13.1111547 32.8686662,13.2732679 32.1477145,13.2732679" id="Fill-18"></path>
                    <path d="M45.2269948,13.1646792 C44.9199911,13.1646792 44.6305041,13.109434 44.3672922,13.0021132 C44.1040803,12.893434 43.8731361,12.7453585 43.681374,12.5587925 C43.4896119,12.3735849 43.3379539,12.1526038 43.2314706,11.901283 C43.1231435,11.6499623 43.0696714,11.3800755 43.0696714,11.0988679 C43.0696714,10.797283 43.1245264,10.5246792 43.2351584,10.2738113 C43.3448684,10.0224906 43.4979093,9.79879245 43.6882885,9.61177358 C43.8814335,9.42339623 44.1123777,9.27124528 44.3755896,9.16075472 C44.6388015,9.05026415 44.9310543,8.99366038 45.2431286,8.99366038 C45.5556639,8.99366038 45.8469948,9.04890566 46.1111286,9.15713208 C46.3752625,9.26581132 46.6052848,9.41569811 46.7961249,9.60362264 C46.9888089,9.79154717 47.139545,10.013434 47.2469502,10.2620377 C47.3548164,10.5110943 47.4087494,10.781434 47.4087494,11.0671698 C47.4087494,11.3642264 47.3529725,11.634566 47.2437234,11.8849811 C47.1340134,12.1363019 46.9805115,12.3595472 46.7878275,12.5479245 C46.5960654,12.7363019 46.3646602,12.8884528 46.0991435,12.9975849 C45.8331658,13.1080755 45.540452,13.1646792 45.2269948,13.1646792 M45.2269948,9.72724528 C45.0338498,9.72724528 44.8554558,9.7634717 44.6973442,9.83592453 C44.5392327,9.90701887 44.4018647,10.0034717 44.2884669,10.1239245 C44.1750691,10.2434717 44.0879465,10.3874717 44.0298647,10.5518491 C43.970861,10.7148679 43.9413591,10.8887547 43.9413591,11.0671698 C43.9413591,11.2682264 43.9736268,11.4439245 44.0381621,11.6055849 C44.1017755,11.7663396 44.1935078,11.9112453 44.3078275,12.0357736 C44.4235301,12.1598491 44.5613591,12.2590189 44.7208535,12.3319245 C44.879426,12.4034717 45.0545933,12.4392453 45.2431286,12.4392453 C45.4413442,12.4392453 45.6220431,12.4034717 45.7806156,12.3319245 C45.9396491,12.2590189 46.0765561,12.1612075 46.189032,12.0393962 C46.3015078,11.9162264 46.3900134,11.7731321 46.4480952,11.6110189 C46.5066379,11.4502642 46.5366007,11.2777358 46.5366007,11.0988679 C46.5366007,10.8991698 46.5043331,10.7221132 46.4388758,10.557283 C46.3761844,10.3942642 46.284913,10.2498113 46.1692104,10.1270943 C46.0539688,10.0048302 45.9147569,9.90701887 45.7571063,9.83592453 C45.5976119,9.7634717 45.4201398,9.72724528 45.2269948,9.72724528" id="Fill-22"></path>
                    <path d="M41.3366677,13.1590189 C41.0342736,13.1590189 40.752623,13.1042264 40.4972476,12.9964528 C40.2418721,12.8891321 40.0173814,12.7401509 39.830229,12.5544906 C39.6407717,12.3683774 39.4932625,12.1473962 39.3877011,11.897434 C39.2816788,11.6461132 39.2277457,11.3766792 39.2277457,11.0963774 C39.2277457,10.7997736 39.2816788,10.5285283 39.3877011,10.2749434 C39.4937234,10.0222642 39.6412327,9.79766038 39.830229,9.61064151 C40.0173814,9.42226415 40.2427941,9.2714717 40.5013963,9.16098113 C40.7590766,9.05049057 41.043032,8.99388679 41.3435822,8.99388679 C41.7280283,8.99388679 42.0502439,9.05773585 42.3019316,9.18226415 C42.5430171,9.30226415 42.7587494,9.45984906 42.9412922,9.65320755 L42.4111807,10.2160755 C42.2719688,10.0797736 42.1230766,9.96475472 41.9677309,9.87418868 C41.7962513,9.77637736 41.5842067,9.72611321 41.3366677,9.72611321 C41.1582736,9.72611321 40.9914037,9.76324528 40.8388238,9.83524528 C40.6880877,9.90633962 40.5567123,10.0023396 40.4483851,10.1227925 C40.339597,10.2423396 40.2538572,10.385434 40.1916268,10.5484528 C40.1312401,10.7119245 40.0989725,10.8858113 40.0989725,11.0646792 C40.0989725,11.2657358 40.1312401,11.441434 40.1916268,11.6049057 C40.2538572,11.7679245 40.3428238,11.9123774 40.4566825,12.0355472 C40.5700803,12.1569057 40.7065264,12.254717 40.8627941,12.3271698 C41.0190617,12.398717 41.194229,12.4349434 41.3841472,12.4349434 C41.6146305,12.4349434 41.8225264,12.3846792 41.9981546,12.2868679 C42.1594929,12.1958491 42.3148387,12.0808302 42.4595822,11.942717 L42.971716,12.4399245 C42.7794929,12.6473208 42.5568461,12.8198491 42.3129948,12.9525283 C42.0585413,13.089283 41.7298721,13.1590189 41.3366677,13.1590189" id="Fill-24"></path>
                    <polygon id="Fill-26" points="38.0182156 13.0627925 38.9747212 13.0627925 38.9747212 12.0919245 38.0182156 12.0919245"></polygon>
                    <path d="M54.950932,13.0504302 L54.950932,10.8727698 C54.950932,10.5576 54.8730287,10.3112604 54.7190659,10.1378264 C54.5641811,9.96484528 54.3438391,9.87699623 54.0631105,9.87699623 C53.7883744,9.87699623 53.5606569,9.9666566 53.3887164,10.144166 C53.2181588,10.3212226 53.1296532,10.5711849 53.1296532,10.8863547 L53.1296532,13.0504302 L52.292538,13.0504302 L52.292538,7.71926038 L53.1296532,7.71926038 L53.1296532,9.9245434 L53.2066346,9.81405283 C53.270248,9.72122264 53.3412369,9.63292075 53.4172963,9.55276981 C53.4919729,9.47352453 53.5804785,9.40152453 53.6809692,9.3381283 C53.7791551,9.2765434 53.8897871,9.22627925 54.0082555,9.19005283 C54.1276458,9.15337358 54.2645529,9.13571321 54.413445,9.13571321 C54.8499804,9.13571321 55.1920175,9.26748679 55.4289543,9.52967547 C55.6668131,9.79186415 55.7875863,10.1532226 55.7875863,10.600166 L55.7875863,13.0504302 L54.950932,13.0504302 Z" id="Fill-28"></path>
                    <path d="M50.7479774,13.1646792 C50.5723491,13.1646792 50.4064012,13.1433962 50.2556651,13.1017358 C50.1072339,13.0596226 49.9777023,12.9926038 49.8698361,12.8997736 C49.7628919,12.8078491 49.678996,12.6851321 49.6209142,12.533434 C49.5623714,12.3803774 49.5319477,12.1852075 49.5319477,11.9538113 L49.5319477,9.65615094 L48.9806317,9.65615094 L48.9806317,8.904 L49.5319477,8.904 L49.5319477,7.72935849 L50.4474272,7.72935849 L50.4474272,8.904 L51.6178213,8.904 L51.6178213,9.65615094 L50.4474272,9.65615094 L50.4474272,11.7993962 C50.4474272,12.0009057 50.4985945,12.1498868 50.6027729,12.2422642 C50.7037246,12.333283 50.8470852,12.3799245 51.028706,12.3799245 C51.2255387,12.3799245 51.4186837,12.3382642 51.6012265,12.2599245 L51.6012265,12.9636226 C51.4864458,13.0261132 51.3610629,13.0754717 51.2310703,13.109434 C51.0918584,13.1456604 50.9286763,13.1646792 50.7479774,13.1646792" id="Fill-29"></path>
                    <polygon id="Fill-30" points="47.8918287 13.0627925 48.8487952 13.0627925 48.8487952 12.0919245 47.8918287 12.0919245"></polygon>
                    <path d="M26.5205576,5.88674717 C26.1010781,6.04886038 25.7341487,6.29429434 25.4308327,6.61716226 C25.1256729,6.94048302 24.889197,7.35165283 24.7255539,7.83844528 C24.5632937,8.32252075 24.4812416,8.88946415 24.4812416,9.52433208 L24.4812416,13.0559547 L22.437316,13.0559547 L22.437316,3.71452075 L24.4812416,3.71452075 L24.4812416,6.27165283 L24.6794572,5.80342642 C24.9786245,5.10018113 25.4082454,4.52961509 25.9581784,4.10893585 C26.4795316,3.70908679 27.1433234,3.51255849 27.9301933,3.5306717 L27.9301933,5.64448302 L27.9043792,5.64448302 C27.4028476,5.64448302 26.9372714,5.72599245 26.5205576,5.88674717" id="Fill-48"></path>
                </g>
                <g id="Blue">
                    <path d="M41.4401546,13.4168604 C40.7551584,13.4168604 40.1056565,13.2968604 39.5105487,13.0613887 C38.9159019,12.825917 38.3922439,12.4912755 37.9538647,12.0660679 C37.5159465,11.641766 37.1656119,11.124634 36.9139242,10.5278038 C36.6613145,9.93233208 36.5336268,9.26350189 36.5336268,8.5421434 C36.5336268,7.8312 36.6497903,7.18953962 36.8775078,6.5981434 C37.1056862,6.00765283 37.4315896,5.48418113 37.8459985,5.04176604 C38.2599465,4.59980377 38.7554855,4.24750189 39.3206305,3.99346415 C39.8843926,3.74033208 40.5163777,3.61218113 41.1999911,3.61218113 C41.9573591,3.61218113 42.6299093,3.74893585 43.198742,4.0197283 C43.7675747,4.29097358 44.2479019,4.66093585 44.6235896,5.11874717 C45.0015822,5.57836981 45.2910691,6.11950189 45.4842141,6.72855849 C45.6768981,7.34033208 45.7741621,7.99331321 45.7741621,8.66893585 C45.7741621,8.76448302 45.7713963,8.86184151 45.7658647,8.96282264 C45.7607941,9.0357283 45.7557234,9.10953962 45.747887,9.18516226 L38.5485115,9.18516226 L38.5660283,9.30199245 C38.6927941,10.1098415 39.02469,10.7388226 39.5538796,11.1708226 C40.0816862,11.6028226 40.7288833,11.8210868 41.4774929,11.8210868 C42.0449428,11.8210868 42.5455524,11.7196528 42.96411,11.5199547 C43.3545487,11.3347472 43.7440654,11.0625962 44.1239019,10.7121057 L45.2901472,11.7296151 C44.8453145,12.2277283 44.3161249,12.633917 43.7141026,12.937766 C43.0848833,13.2552 42.3196788,13.4168604 41.4401546,13.4168604 L41.4401546,13.4168604 Z M41.1820134,5.20840755 C40.4647494,5.20840755 39.864571,5.45384151 39.39669,5.93836981 C38.9338796,6.41836981 38.6471584,7.05142642 38.5471286,7.82123774 L38.5314558,7.93444528 L43.7726454,7.93444528 L43.7611212,7.82304906 C43.7233219,7.46531321 43.640348,7.12297358 43.5140431,6.80644528 C43.3872773,6.48810566 43.21211,6.20870943 42.9954558,5.97686038 C42.7778796,5.74410566 42.5146677,5.55618113 42.2141175,5.41761509 C41.9121844,5.27859623 41.5641546,5.20840755 41.1820134,5.20840755 L41.1820134,5.20840755 Z" id="Fill-1" fill="#136B99"></path>
                    <path d="M33.8889234,13.1393208 L33.8889234,7.86022642 C33.8889234,7.09766038 33.7003881,6.49992453 33.3283881,6.08196226 C32.9531613,5.66128302 32.4175182,5.44754717 31.7380535,5.44754717 C31.0719569,5.44754717 30.5215628,5.66626415 30.1039271,6.09690566 C29.6885963,6.52618868 29.4774736,7.13162264 29.4774736,7.896 L29.4774736,13.1393208 L27.4487599,13.1393208 L27.4487599,3.84996226 L29.4774736,3.84996226 L29.4774736,5.56437736 L29.6632431,5.29539623 C29.8176669,5.06943396 29.9896074,4.85796226 30.1735331,4.66369811 C30.3551539,4.47169811 30.5699643,4.296 30.8105888,4.14384906 C31.0507524,3.9930566 31.318574,3.87215094 31.6062171,3.78475472 C31.8952431,3.69690566 32.2257561,3.65207547 32.5894587,3.65207547 C33.6478379,3.65207547 34.4757338,3.97313208 35.0491762,4.60754717 C35.6258454,5.24422642 35.9171762,6.11683019 35.9171762,7.20090566 L35.9171762,13.1393208 L33.8889234,13.1393208 Z" id="Fill-3" fill="#136B99"></path>
                    <path d="M47.6963465,16.1088453 C47.2436773,16.1088453 46.8371048,16.0585811 46.4876922,15.9594113 C46.1640937,15.8679396 45.8446439,15.7434113 45.5376401,15.5885434 L46.2051197,14.1485434 C46.3858186,14.2377509 46.5720491,14.3115623 46.7578186,14.368166 C46.9818483,14.4374491 47.2169413,14.472317 47.4580268,14.472317 C47.7968372,14.472317 48.0830974,14.3871849 48.3080491,14.2173736 C48.528852,14.0516377 48.736287,13.7473358 48.9266662,13.3130717 L48.943261,13.2741283 L44.9526736,3.86703396 L47.0947851,3.86703396 L49.9182052,11.1159396 L52.497774,3.86703396 L54.5859524,3.86703396 L50.7903539,13.5077887 C50.5985918,13.9900528 50.3976104,14.4034868 50.1938632,14.7349585 C49.9919599,15.0600906 49.7647033,15.3277132 49.5194691,15.5287698 C49.273774,15.7298264 49.0022647,15.8779019 48.7095509,15.9693736 C48.4149933,16.0622038 48.074339,16.1088453 47.6963465,16.1088453" id="Fill-5" fill="#136B99"></path>
                    <polygon id="Fill-7" fill="#136B99" points="10.4464238 13.1643623 10.4464238 3.83107925 6.22811896 10.0194566 2.04576952 3.86685283 2.04576952 13.1643623 0 13.1643623 0 0.67394717 2.25919703 0.67394717 6.24655762 6.76043774 10.2343792 0.67394717 12.4931152 0.67394717 12.4931152 13.1643623"></polygon>
                    <path d="M25.4568773,4.58848302 L24.5464684,5.85957736 C25.0687435,6.6882566 25.3444015,7.64418113 25.3444015,8.62365283 C25.3444015,11.5312755 22.9317026,13.8959547 19.9658439,13.8959547 C16.9999851,13.8959547 14.5868253,11.5312755 14.5868253,8.62365283 C14.5868253,5.71693585 16.9999851,3.3522566 19.9658439,3.3522566 C20.8942305,3.3522566 21.8074052,3.58636981 22.609948,4.03150189 L23.6028699,2.91935094 C22.5145279,2.25142642 21.258855,1.89821887 19.9658439,1.89821887 C16.1817695,1.89821887 13.102974,4.91497358 13.102974,8.62365283 C13.102974,10.1578415 13.6436877,11.6580679 14.6255465,12.8485585 L14.6416803,12.8680302 L14.645368,12.9477283 L13.3302305,14.236483 L12.9490112,13.9262943 L8.25498885,18.4056906 L9.57473606,19.8425208 L14.2918067,15.3703698 L13.9755836,15.0289358 L15.4271673,13.6699925 L15.4824833,13.7157283 C16.7275539,14.769917 18.3192714,15.3504453 19.9658439,15.3504453 C23.7499182,15.3504453 26.8287138,12.3323321 26.8287138,8.62365283 C26.8287138,7.15195472 26.3543792,5.75904906 25.4568773,4.58848302" id="Fill-9" fill="#136B99"></path>
                    <path d="M16.0876401,6.58102642 C16.0876401,6.58102642 18.6552238,9.10102642 19.9708223,12.2980075 C19.9708223,12.2980075 24.4965918,3.42796981 27.7058409,0.849554717 C27.7058409,0.849554717 25.128116,1.75159245 19.9708223,8.04230943 C19.9708223,8.04230943 17.6659896,6.58102642 16.0876401,6.58102642" id="Fill-11" fill="#73A647"></path>
                </g>
            </g>
        </g>
    </g>
</svg>